<svg width="20" height="20" viewBox="0 0 20 20" fill="none" xmlns="http://www.w3.org/2000/svg">
<path d="M16.4167 8.62492V17.3333C16.4167 17.5764 16.3201 17.8095 16.1482 17.9814C15.9763 18.1533 15.7431 18.2499 15.5 18.2499H2.66667C2.42355 18.2499 2.19039 18.1533 2.01849 17.9814C1.84658 17.8095 1.75 17.5764 1.75 17.3333V4.49992C1.75 4.2568 1.84658 4.02365 2.01849 3.85174C2.19039 3.67983 2.42355 3.58325 2.66667 3.58325H11.0835" stroke="#8B909A" stroke-width="2" stroke-miterlimit="10" stroke-linecap="round" stroke-linejoin="round"/>
<path d="M14.5833 3.5833H18.25M16.4144 1.65601V5.32267M4.5 13.222L7.25 9.54163L8.625 10.9166L10.2292 8.3958L13.6667 13.222H4.5Z" stroke="#8B909A" stroke-width="2" stroke-miterlimit="10" stroke-linecap="round" stroke-linejoin="round"/>
</svg>
