<svg width="24" height="24" viewBox="0 0 24 24" fill="none" xmlns="http://www.w3.org/2000/svg">
<path fill-rule="evenodd" clip-rule="evenodd" d="M7.71636 5.63691C7.71648 5.5042 7.67518 5.37477 7.59825 5.26674C7.52131 5.15871 7.41259 5.07748 7.2873 5.03443C7.16201 4.99137 7.02642 4.98863 6.8995 5.0266C6.77258 5.06458 6.66069 5.14136 6.57948 5.2462L2.13357 10.9732C2.04684 11.0849 1.99976 11.2224 1.99976 11.3639C1.99976 11.5055 2.04684 11.643 2.13357 11.7547L6.57948 17.4817C6.66069 17.5865 6.77258 17.6633 6.8995 17.7013C7.02642 17.7393 7.16201 17.7365 7.2873 17.6935C7.41259 17.6504 7.52131 17.5692 7.59825 17.4612C7.67518 17.3531 7.71648 17.2237 7.71636 17.091V14.552C11.1327 14.6233 12.7739 15.273 13.5983 15.9793C14.382 16.6506 14.5256 17.4403 14.6748 18.2676L14.7136 18.4808C14.7421 18.6333 14.8252 18.7701 14.9474 18.8655C15.0696 18.9609 15.2223 19.0083 15.3769 18.9988C15.5315 18.9893 15.6773 18.9234 15.7868 18.8137C15.8964 18.704 15.9622 18.558 15.9718 18.4031C16.0804 16.6545 15.9171 14.1206 14.6844 12.0009C13.4878 9.94364 11.3328 8.36171 7.71636 8.19626V5.63691Z" fill="#C4C4C4"/>
</svg>
