<svg width="24" height="24" viewBox="0 0 24 24" fill="none" xmlns="http://www.w3.org/2000/svg">
<rect width="24" height="24" rx="4" fill="#F5F5DD"/>
<path fill-rule="evenodd" clip-rule="evenodd" d="M18.75 10.4998L18.744 10.7428L18.75 10.9998L18.744 11.2428L18.75 11.4998L18.744 11.7448L18.75 11.9998L18.588 19.1028C18.5692 19.9175 18.255 20.6976 17.7039 21.2979C17.1527 21.8982 16.4022 22.2777 15.592 22.3658C13.2043 22.624 10.7957 22.624 8.408 22.3658C7.59784 22.2777 6.84729 21.8982 6.29613 21.2979C5.74497 20.6976 5.43075 19.9175 5.412 19.1028L5.25 11.9998L5.256 11.7428L5.25 11.4998L5.256 11.2438L5.25 10.9998L5.256 10.7438L5.25 10.4998L5.414 4.40176C5.416 4.31643 5.422 4.23243 5.432 4.14976L5.435 4.11476L5.438 4.08576C5.47958 3.65712 5.62461 3.24499 5.86064 2.88477C6.09666 2.52456 6.41661 2.22703 6.793 2.01776C6.84433 1.98776 6.89633 1.9591 6.949 1.93176C7.28432 1.75566 7.65089 1.64695 8.028 1.61176C10.6704 1.36834 13.3296 1.36834 15.972 1.61176C16.4083 1.65188 16.8299 1.79035 17.205 2.01676C17.2583 2.04743 17.3107 2.07976 17.362 2.11376C17.6966 2.33059 17.9781 2.61985 18.1858 2.96015C18.3935 3.30045 18.5221 3.68308 18.562 4.07976L18.569 4.15376C18.579 4.23576 18.5847 4.31843 18.586 4.40176L18.75 10.4998ZM17.074 4.31976L17.231 11.1878L17.104 15.9178C17.0902 16.4316 16.8885 16.9225 16.5371 17.2975C16.1856 17.6726 15.7088 17.9057 15.197 17.9528C13.0701 18.1479 10.9299 18.1479 8.803 17.9528C8.29117 17.9057 7.81437 17.6726 7.46291 17.2975C7.11146 16.9225 6.90975 16.4316 6.896 15.9178L6.769 11.1878L6.926 4.32076C6.926 4.30543 6.92667 4.29076 6.928 4.27676C6.988 3.87376 7.22 3.52676 7.551 3.31676C7.67967 3.2506 7.81925 3.20825 7.963 3.19176C10.646 2.90176 13.353 2.90176 16.037 3.19176C16.1857 3.20843 16.323 3.24976 16.449 3.31576C16.779 3.52676 17.013 3.87476 17.073 4.27676L17.074 4.31976ZM12 21.6998C12.3978 21.6998 12.7794 21.5417 13.0607 21.2604C13.342 20.9791 13.5 20.5976 13.5 20.1998C13.5 19.8019 13.342 19.4204 13.0607 19.1391C12.7794 18.8578 12.3978 18.6998 12 18.6998C11.6022 18.6998 11.2206 18.8578 10.9393 19.1391C10.658 19.4204 10.5 19.8019 10.5 20.1998C10.5 20.5976 10.658 20.9791 10.9393 21.2604C11.2206 21.5417 11.6022 21.6998 12 21.6998Z" fill="black"/>
</svg>
