<svg width="18" height="19" viewBox="0 0 18 19" fill="none" xmlns="http://www.w3.org/2000/svg">
<path fill-rule="evenodd" clip-rule="evenodd" d="M7.87495 2C6.85839 2.00009 5.85659 2.24327 4.95314 2.70927C4.04968 3.17527 3.27077 3.85056 2.68137 4.67882C2.09198 5.50707 1.7092 6.46426 1.56498 7.47053C1.42075 8.47681 1.51926 9.50298 1.85228 10.4634C2.1853 11.4239 2.74318 12.2908 3.47937 12.9918C4.21557 13.6928 5.10872 14.2076 6.08433 14.4932C7.05994 14.7788 8.0897 14.827 9.08771 14.6337C10.0857 14.4404 11.023 14.0112 11.8214 13.382L14.5604 16.121C14.7019 16.2576 14.8913 16.3332 15.088 16.3315C15.2846 16.3298 15.4728 16.2509 15.6118 16.1119C15.7509 15.9728 15.8297 15.7847 15.8315 15.5881C15.8332 15.3914 15.7576 15.202 15.6209 15.0605L12.8819 12.3215C13.6229 11.3815 14.0843 10.2518 14.2133 9.06179C14.3422 7.87179 14.1335 6.66952 13.6111 5.59257C13.0887 4.51562 12.2736 3.60752 11.2592 2.97217C10.2447 2.33683 9.07192 1.99992 7.87495 2ZM2.99995 8.375C2.99995 7.08207 3.51356 5.84209 4.4278 4.92785C5.34204 4.01361 6.58202 3.5 7.87495 3.5C9.16788 3.5 10.4079 4.01361 11.3221 4.92785C12.2363 5.84209 12.7499 7.08207 12.7499 8.375C12.7499 9.66793 12.2363 10.9079 11.3221 11.8221C10.4079 12.7364 9.16788 13.25 7.87495 13.25C6.58202 13.25 5.34204 12.7364 4.4278 11.8221C3.51356 10.9079 2.99995 9.66793 2.99995 8.375Z" fill="#8B909A"/>
</svg>
