<svg width="22" height="22" viewBox="0 0 22 22" fill="none" xmlns="http://www.w3.org/2000/svg">
<path d="M17.4167 9.62516V18.3335C17.4167 18.5766 17.3201 18.8098 17.1482 18.9817C16.9763 19.1536 16.7431 19.2502 16.5 19.2502H3.66667C3.42355 19.2502 3.19039 19.1536 3.01849 18.9817C2.84658 18.8098 2.75 18.5766 2.75 18.3335V5.50016C2.75 5.25705 2.84658 5.02389 3.01849 4.85198C3.19039 4.68007 3.42355 4.5835 3.66667 4.5835H12.0835" stroke="black" stroke-width="2" stroke-miterlimit="10" stroke-linecap="round" stroke-linejoin="round"/>
<path d="M15.5833 4.58354H19.25M17.4144 2.65625V6.32292M5.5 14.2223L8.25 10.5419L9.625 11.9169L11.2292 9.39604L14.6667 14.2223H5.5Z" stroke="black" stroke-width="2" stroke-miterlimit="10" stroke-linecap="round" stroke-linejoin="round"/>
</svg>
