<svg width="22" height="22" viewBox="0 0 22 22" fill="none" xmlns="http://www.w3.org/2000/svg">
<path d="M10.9992 18.0714V21.2143M14.9277 16.5V19.6428M7.07059 16.5V19.6428M12.6712 5.32554C12.5817 5.06958 12.4146 4.84789 12.1932 4.69129C11.9718 4.5347 11.7072 4.451 11.436 4.45182H10.4224C10.135 4.45284 9.85799 4.55973 9.64436 4.75206C9.43072 4.94439 9.29543 5.20868 9.26433 5.49445C9.23322 5.78022 9.30849 6.06743 9.47574 6.30122C9.643 6.53501 9.89052 6.69898 10.171 6.76182L11.7157 7.10125C12.0303 7.17139 12.3079 7.35496 12.4957 7.61689C12.6834 7.87882 12.7681 8.20074 12.7335 8.52114C12.6989 8.84154 12.5474 9.13796 12.3081 9.35376C12.0687 9.56956 11.7583 9.68961 11.436 9.69096H10.5623C10.2912 9.69179 10.0265 9.60809 9.80511 9.45149C9.58374 9.2949 9.41668 9.07321 9.32716 8.81725M10.9992 4.45182V3.14282M10.9992 11V9.69096M4.32059 7.46425C4.2164 7.46425 4.11647 7.42286 4.0428 7.34919C3.96912 7.27551 3.92773 7.17559 3.92773 7.07139C3.92773 6.9672 3.96912 6.86728 4.0428 6.7936C4.11647 6.71993 4.2164 6.67854 4.32059 6.67854C4.42478 6.67854 4.52471 6.71993 4.59838 6.7936C4.67206 6.86728 4.71345 6.9672 4.71345 7.07139C4.71345 7.17559 4.67206 7.27551 4.59838 7.34919C4.52471 7.42286 4.42478 7.46425 4.32059 7.46425ZM17.6777 7.46425C17.5735 7.46425 17.4736 7.42286 17.3999 7.34919C17.3263 7.27551 17.2849 7.17559 17.2849 7.07139C17.2849 6.9672 17.3263 6.86728 17.3999 6.7936C17.4736 6.71993 17.5735 6.67854 17.6777 6.67854C17.7819 6.67854 17.8819 6.71993 17.9555 6.7936C18.0292 6.86728 18.0706 6.9672 18.0706 7.07139C18.0706 7.17559 18.0292 7.27551 17.9555 7.34919C17.8819 7.42286 17.7819 7.46425 17.6777 7.46425Z" stroke="#8B909A" stroke-width="1.5" stroke-linecap="round" stroke-linejoin="round"/>
<path d="M19.6423 0.785645H2.35658C1.93982 0.785645 1.54012 0.951205 1.24542 1.24591C0.950717 1.54061 0.785156 1.9403 0.785156 2.35707V11.7856C0.785156 12.2024 0.950717 12.6021 1.24542 12.8968C1.54012 13.1915 1.93982 13.3571 2.35658 13.3571H19.6423C20.0591 13.3571 20.4588 13.1915 20.7535 12.8968C21.0482 12.6021 21.2137 12.2024 21.2137 11.7856V2.35707C21.2137 1.9403 21.0482 1.54061 20.7535 1.24591C20.4588 0.951205 20.0591 0.785645 19.6423 0.785645Z" stroke="#8B909A" stroke-width="1.5" stroke-linecap="round" stroke-linejoin="round"/>
</svg>
