<svg width="19" height="19" viewBox="0 0 19 19" fill="none" xmlns="http://www.w3.org/2000/svg">
<path d="M3.58398 0.75H15.5007C16.23 0.75 16.9295 1.03973 17.4452 1.55546C17.9609 2.07118 18.2507 2.77065 18.2507 3.5V15.4167C18.2507 16.146 17.9609 16.8455 17.4452 17.3612C16.9295 17.8769 16.23 18.1667 15.5007 18.1667H3.58398C2.85464 18.1667 2.15517 17.8769 1.63944 17.3612C1.12372 16.8455 0.833984 16.146 0.833984 15.4167V3.5C0.833984 2.77065 1.12372 2.07118 1.63944 1.55546C2.15517 1.03973 2.85464 0.75 3.58398 0.75ZM3.58398 1.66667C3.09775 1.66667 2.63144 1.85982 2.28762 2.20364C1.94381 2.54745 1.75065 3.01377 1.75065 3.5V14.1242L5.68315 10.1825L7.97482 12.4742L12.5582 7.89083L17.334 12.6667V3.5C17.334 3.01377 17.1408 2.54745 16.797 2.20364C16.4532 1.85982 15.9869 1.66667 15.5007 1.66667H3.58398ZM7.97482 13.7758L5.68315 11.4842L1.75065 15.4167C1.75065 15.9029 1.94381 16.3692 2.28762 16.713C2.63144 17.0568 3.09775 17.25 3.58398 17.25H15.5007C15.9869 17.25 16.4532 17.0568 16.797 16.713C17.1408 16.3692 17.334 15.9029 17.334 15.4167V13.9592L12.5582 9.1925L7.97482 13.7758ZM5.87565 3.5C6.48344 3.5 7.06633 3.74144 7.4961 4.17121C7.92587 4.60098 8.16732 5.18388 8.16732 5.79167C8.16732 6.39945 7.92587 6.98235 7.4961 7.41212C7.06633 7.84189 6.48344 8.08333 5.87565 8.08333C5.26786 8.08333 4.68497 7.84189 4.2552 7.41212C3.82543 6.98235 3.58398 6.39945 3.58398 5.79167C3.58398 5.18388 3.82543 4.60098 4.2552 4.17121C4.68497 3.74144 5.26786 3.5 5.87565 3.5ZM5.87565 4.41667C5.51098 4.41667 5.16124 4.56153 4.90338 4.81939C4.64552 5.07726 4.50065 5.42699 4.50065 5.79167C4.50065 6.15634 4.64552 6.50608 4.90338 6.76394C5.16124 7.0218 5.51098 7.16667 5.87565 7.16667C6.24032 7.16667 6.59006 7.0218 6.84792 6.76394C7.10579 6.50608 7.25065 6.15634 7.25065 5.79167C7.25065 5.42699 7.10579 5.07726 6.84792 4.81939C6.59006 4.56153 6.24032 4.41667 5.87565 4.41667Z" fill="#8B909A"/>
</svg>
