<svg width="16" height="20" viewBox="0 0 16 20" fill="none" xmlns="http://www.w3.org/2000/svg">
<path d="M4 8.00006V5.00006C3.99904 4.02579 4.35369 3.08467 4.99738 2.35333C5.64107 1.62199 6.52954 1.15072 7.49605 1.02798C8.46255 0.905231 9.44062 1.13945 10.2467 1.68667C11.0528 2.23388 11.6314 3.05648 11.874 4.00006" stroke="#8B909A" stroke-width="1.5" stroke-linecap="round"/>
<path d="M1 8H15V17C15 17.5304 14.7893 18.0391 14.4142 18.4142C14.0391 18.7893 13.5304 19 13 19H3C2.46957 19 1.96086 18.7893 1.58579 18.4142C1.21071 18.0391 1 17.5304 1 17V8Z" stroke="#8B909A" stroke-width="1.5" stroke-linejoin="round"/>
<path d="M10.5 13.5H10.51V13.51H10.5V13.5Z" stroke="#8B909A" stroke-width="2.25" stroke-linejoin="round"/>
</svg>
