<svg width="32" height="33" viewBox="0 0 32 33" fill="none" xmlns="http://www.w3.org/2000/svg">
<rect y="0.8116" width="32" height="32" rx="8" fill="#FFF2E2"/>
<path d="M22.1042 14.7018C22.1042 14.7018 21.6517 20.3143 21.3892 22.6784C21.2642 23.8076 20.5667 24.4693 19.4242 24.4901C17.25 24.5293 15.0733 24.5318 12.9 24.4859C11.8008 24.4634 11.115 23.7934 10.9925 22.6843C10.7283 20.2993 10.2783 14.7018 10.2783 14.7018" stroke="#130F26" stroke-width="1.5" stroke-linecap="round" stroke-linejoin="round"/>
<path d="M23.2567 12.0113H9.125" stroke="#130F26" stroke-width="1.5" stroke-linecap="round" stroke-linejoin="round"/>
<path d="M20.5335 12.0114C19.8793 12.0114 19.316 11.5489 19.1877 10.908L18.9852 9.89468C18.8602 9.42718 18.4368 9.10385 17.9543 9.10385H14.4268C13.9443 9.10385 13.521 9.42718 13.396 9.89468L13.1935 10.908C13.0652 11.5489 12.5018 12.0114 11.8477 12.0114" stroke="#130F26" stroke-width="1.5" stroke-linecap="round" stroke-linejoin="round"/>
</svg>
